<?xml version="1.0" encoding="UTF-8"?>
<svg xmlns="http://www.w3.org/2000/svg" xmlns:xlink="http://www.w3.org/1999/xlink" width="60px" height="60px" viewBox="0 0 60 60" version="1.1">
<g id="surface1">
<path style=" stroke:none;fill-rule:nonzero;fill:rgb(92.941177%,93.333334%,93.333334%);fill-opacity:1;" d="M 38.761719 20.519531 C 38.761719 20.597656 38.761719 20.679688 38.761719 20.761719 C 38.839844 20.761719 38.917969 20.761719 39 20.761719 C 41.222656 23.15625 42.171875 26.210938 42.15625 29.4375 C 42.15625 29.667969 42.15625 29.667969 42.15625 29.902344 C 42.140625 30.980469 42.074219 31.964844 41.761719 33 C 41.71875 33.140625 41.675781 33.28125 41.632812 33.425781 C 41.1875 34.773438 40.5625 36.003906 39.65625 37.101562 C 39.460938 37.335938 39.460938 37.335938 39.238281 37.679688 C 39.160156 37.679688 39.082031 37.679688 39 37.679688 C 38.96875 37.75 38.9375 37.824219 38.902344 37.898438 C 38.761719 38.160156 38.628906 38.328125 38.398438 38.519531 C 38.320312 38.519531 38.242188 38.519531 38.160156 38.519531 C 38.160156 38.597656 38.160156 38.679688 38.160156 38.761719 C 37.894531 38.96875 37.632812 39.160156 37.359375 39.351562 C 37.28125 39.40625 37.207031 39.457031 37.128906 39.511719 C 35.980469 40.320312 35.980469 40.320312 35.398438 40.320312 C 35.398438 40.398438 35.398438 40.476562 35.398438 40.558594 C 35.261719 40.609375 35.125 40.660156 34.984375 40.710938 C 33.9375 41.101562 33.171875 41.414062 32.519531 42.359375 C 32.367188 42.539062 32.210938 42.714844 32.054688 42.890625 C 31.984375 42.972656 31.917969 43.050781 31.847656 43.132812 C 31.574219 43.4375 31.574219 43.4375 31.347656 43.453125 C 31.257812 43.453125 31.167969 43.453125 31.074219 43.453125 C 30.980469 43.453125 30.882812 43.449219 30.78125 43.449219 C 30.679688 43.449219 30.578125 43.449219 30.472656 43.449219 C 30.371094 43.445312 30.265625 43.445312 30.160156 43.445312 C 29.90625 43.445312 29.652344 43.441406 29.398438 43.441406 C 29.570312 42.808594 29.851562 42.394531 30.238281 41.878906 C 30.101562 41.867188 30.101562 41.867188 29.960938 41.855469 C 26.167969 41.523438 26.167969 41.523438 24.71875 40.800781 C 24.753906 40.414062 24.84375 40.316406 25.140625 40.054688 C 25.265625 39.964844 25.394531 39.875 25.523438 39.78125 C 25.707031 39.644531 25.707031 39.644531 25.898438 39.507812 C 26.023438 39.417969 26.152344 39.332031 26.28125 39.238281 C 26.402344 39.148438 26.523438 39.058594 26.648438 38.964844 C 27.039062 38.738281 27.171875 38.71875 27.609375 38.789062 C 29.121094 38.972656 30.800781 39.054688 32.28125 38.640625 C 32.460938 38.589844 32.460938 38.589844 32.644531 38.539062 C 33.328125 38.328125 33.914062 38.085938 34.496094 37.675781 C 34.679688 37.558594 34.679688 37.558594 34.921875 37.558594 C 34.921875 37.480469 34.921875 37.402344 34.921875 37.320312 C 35.578125 36.71875 35.578125 36.71875 35.878906 36.71875 C 35.914062 36.648438 35.945312 36.578125 35.980469 36.503906 C 36.117188 36.246094 36.261719 36.066406 36.460938 35.851562 C 36.847656 35.410156 37.125 34.949219 37.394531 34.433594 C 37.441406 34.34375 37.488281 34.253906 37.535156 34.164062 C 38.746094 31.78125 38.980469 28.476562 38.160156 25.921875 C 37.734375 24.734375 37.230469 23.605469 36.359375 22.679688 C 36.25 22.546875 36.25 22.546875 36.136719 22.414062 C 35.035156 21.195312 33.527344 20.433594 31.921875 20.160156 C 31.832031 20.136719 31.742188 20.117188 31.652344 20.09375 C 29.3125 19.710938 26.898438 20.242188 24.960938 21.601562 C 23.113281 23.0625 21.914062 24.96875 21.527344 27.3125 C 21.199219 30.265625 21.492188 33.355469 23.398438 35.761719 C 23.632812 35.972656 23.871094 36.164062 24.121094 36.359375 C 24.230469 36.273438 24.339844 36.191406 24.453125 36.101562 C 24.597656 35.992188 24.742188 35.878906 24.886719 35.765625 C 24.957031 35.710938 25.03125 35.65625 25.105469 35.597656 C 25.773438 35.082031 26.136719 35.023438 26.96875 35.027344 C 27.121094 35.027344 27.121094 35.027344 27.28125 35.027344 C 27.613281 35.03125 27.945312 35.03125 28.273438 35.03125 C 28.5 35.03125 28.722656 35.035156 28.949219 35.035156 C 29.5 35.035156 30.050781 35.039062 30.601562 35.039062 C 30.601562 35.160156 30.601562 35.277344 30.601562 35.398438 C 30.371094 35.601562 30.371094 35.601562 30.046875 35.828125 C 29.921875 35.914062 29.800781 35.996094 29.675781 36.085938 C 29.542969 36.175781 29.414062 36.269531 29.28125 36.359375 C 29.015625 36.542969 28.753906 36.730469 28.492188 36.914062 C 28.386719 36.988281 28.386719 36.988281 28.28125 37.0625 C 27.683594 37.492188 27.101562 37.945312 26.519531 38.398438 C 25.683594 39.054688 24.835938 39.683594 23.96875 40.292969 C 23.742188 40.453125 23.515625 40.613281 23.292969 40.777344 C 23.214844 40.832031 23.136719 40.886719 23.058594 40.945312 C 22.910156 41.050781 22.761719 41.15625 22.613281 41.265625 C 21.972656 41.722656 21.59375 41.777344 20.820312 41.773438 C 20.667969 41.769531 20.667969 41.769531 20.511719 41.769531 C 20.191406 41.769531 19.867188 41.769531 19.546875 41.765625 C 19.328125 41.765625 19.109375 41.765625 18.890625 41.765625 C 18.351562 41.765625 17.816406 41.761719 17.28125 41.761719 C 17.363281 41.28125 17.558594 41.125 17.953125 40.839844 C 18.070312 40.761719 18.070312 40.761719 18.1875 40.679688 C 18.351562 40.5625 18.515625 40.449219 18.675781 40.332031 C 18.804688 40.242188 18.804688 40.242188 18.933594 40.148438 C 19.46875 39.765625 19.988281 39.367188 20.507812 38.964844 C 21.09375 38.519531 21.09375 38.519531 21.359375 38.519531 C 21.292969 38.445312 21.230469 38.367188 21.160156 38.289062 C 18.460938 35.085938 17.601562 31.789062 17.878906 27.601562 C 17.960938 26.855469 18.125 26.148438 18.359375 25.441406 C 18.386719 25.363281 18.410156 25.28125 18.4375 25.203125 C 19.019531 23.488281 19.980469 21.9375 21.238281 20.640625 C 21.320312 20.640625 21.398438 20.640625 21.480469 20.640625 C 21.480469 20.5625 21.480469 20.480469 21.480469 20.398438 C 21.710938 20.199219 21.941406 20.011719 22.183594 19.828125 C 22.257812 19.777344 22.328125 19.722656 22.402344 19.667969 C 27.105469 16.160156 34.472656 16.398438 38.761719 20.519531 Z M 38.761719 20.519531 "/>
<path style=" stroke:none;fill-rule:nonzero;fill:rgb(50.196081%,51.372552%,53.333336%);fill-opacity:1;" d="M 25.921875 35.039062 C 27.464844 35.039062 29.007812 35.039062 30.601562 35.039062 C 30.601562 35.160156 30.601562 35.277344 30.601562 35.398438 C 30.398438 35.59375 30.398438 35.59375 30.136719 35.78125 C 30.046875 35.847656 29.960938 35.910156 29.875 35.976562 C 29.640625 36.121094 29.640625 36.121094 29.398438 36.121094 C 29.441406 35.960938 29.480469 35.804688 29.519531 35.640625 C 29.589844 35.628906 29.664062 35.617188 29.738281 35.601562 C 30.046875 35.527344 30.046875 35.527344 30.359375 35.160156 C 28.894531 35.160156 27.429688 35.160156 25.921875 35.160156 C 25.921875 35.121094 25.921875 35.082031 25.921875 35.039062 Z M 25.921875 35.039062 "/>
<path style=" stroke:none;fill-rule:nonzero;fill:rgb(63.137257%,63.921571%,66.274512%);fill-opacity:1;" d="M 26.398438 39.121094 C 26.480469 39.121094 26.558594 39.121094 26.640625 39.121094 C 26.640625 39.199219 26.640625 39.277344 26.640625 39.359375 C 26.5625 39.359375 26.480469 39.359375 26.398438 39.359375 C 26.359375 39.480469 26.320312 39.597656 26.28125 39.71875 C 26.160156 39.71875 26.042969 39.71875 25.921875 39.71875 C 25.921875 39.800781 25.921875 39.878906 25.921875 39.960938 C 25.726562 40.164062 25.523438 40.363281 25.320312 40.558594 C 25.375 40.613281 25.429688 40.667969 25.484375 40.726562 C 25.703125 40.941406 25.703125 40.941406 25.921875 41.160156 C 25.472656 41.097656 25.113281 41.027344 24.71875 40.800781 C 24.75 40.402344 24.851562 40.308594 25.164062 40.042969 C 25.292969 39.945312 25.425781 39.851562 25.558594 39.757812 C 25.691406 39.660156 25.824219 39.566406 25.957031 39.472656 C 26.0625 39.394531 26.171875 39.320312 26.28125 39.238281 C 26.320312 39.199219 26.359375 39.160156 26.398438 39.121094 Z M 26.398438 39.121094 "/>
<path style=" stroke:none;fill-rule:nonzero;fill:rgb(52.941179%,54.901963%,56.470591%);fill-opacity:1;" d="M 42 27.71875 C 42.039062 27.71875 42.078125 27.71875 42.121094 27.71875 C 42.125 28.1875 42.128906 28.660156 42.132812 29.128906 C 42.136719 29.363281 42.136719 29.601562 42.140625 29.835938 C 42.144531 30.796875 42.074219 31.699219 41.878906 32.640625 C 41.839844 32.640625 41.800781 32.640625 41.761719 32.640625 C 41.726562 30.984375 41.816406 29.367188 42 27.71875 Z M 42 27.71875 "/>
<path style=" stroke:none;fill-rule:nonzero;fill:rgb(64.313728%,63.921571%,65.098041%);fill-opacity:1;" d="M 26.878906 41.398438 C 28.164062 41.375 29.4375 41.449219 30.71875 41.519531 C 30.511719 41.984375 30.511719 41.984375 30.238281 42.121094 C 30.238281 42.039062 30.238281 41.960938 30.238281 41.878906 C 29.132812 41.761719 28.023438 41.640625 26.878906 41.519531 C 26.878906 41.480469 26.878906 41.441406 26.878906 41.398438 Z M 26.878906 41.398438 "/>
<path style=" stroke:none;fill-rule:nonzero;fill:rgb(87.058824%,87.058824%,87.450981%);fill-opacity:1;" d="M 26.761719 35.113281 C 26.917969 35.113281 26.917969 35.113281 27.074219 35.113281 C 27.402344 35.117188 27.730469 35.125 28.058594 35.128906 C 28.28125 35.132812 28.503906 35.132812 28.726562 35.136719 C 29.269531 35.140625 29.816406 35.148438 30.359375 35.160156 C 30.320312 35.238281 30.28125 35.320312 30.238281 35.398438 C 28.042969 35.339844 28.042969 35.339844 25.800781 35.28125 C 25.722656 35.476562 25.640625 35.675781 25.558594 35.878906 C 25.402344 35.800781 25.242188 35.722656 25.078125 35.640625 C 25.617188 35.089844 26.039062 35.09375 26.761719 35.113281 Z M 26.761719 35.113281 "/>
<path style=" stroke:none;fill-rule:nonzero;fill:rgb(78.039217%,78.823531%,79.607844%);fill-opacity:1;" d="M 23.398438 18.960938 C 23.480469 19 23.558594 19.039062 23.640625 19.078125 C 23.027344 20.007812 23.027344 20.007812 22.589844 20.144531 C 22.5 20.148438 22.410156 20.15625 22.320312 20.160156 C 22.242188 20.238281 22.160156 20.320312 22.078125 20.398438 C 21.960938 20.359375 21.84375 20.320312 21.71875 20.28125 C 21.933594 20.105469 22.144531 19.929688 22.359375 19.753906 C 22.476562 19.65625 22.59375 19.558594 22.714844 19.460938 C 23.039062 19.199219 23.039062 19.199219 23.398438 18.960938 Z M 23.398438 18.960938 "/>
<path style=" stroke:none;fill-rule:nonzero;fill:rgb(65.882355%,67.843139%,68.627453%);fill-opacity:1;" d="M 21.238281 20.640625 C 21.320312 20.640625 21.398438 20.640625 21.480469 20.640625 C 21.480469 20.71875 21.480469 20.796875 21.480469 20.878906 C 21.402344 20.878906 21.320312 20.878906 21.238281 20.878906 C 21.238281 21 21.238281 21.117188 21.238281 21.238281 C 21.039062 21.441406 20.839844 21.640625 20.640625 21.839844 C 20.621094 21.925781 20.605469 22.007812 20.585938 22.09375 C 20.519531 22.320312 20.519531 22.320312 20.152344 22.53125 C 20.035156 22.578125 19.917969 22.628906 19.800781 22.679688 C 19.976562 22.140625 20.277344 21.75 20.640625 21.324219 C 20.695312 21.257812 20.75 21.191406 20.804688 21.121094 C 20.945312 20.957031 21.089844 20.796875 21.238281 20.640625 Z M 21.238281 20.640625 "/>
<path style=" stroke:none;fill-rule:nonzero;fill:rgb(78.823531%,80.392158%,81.568629%);fill-opacity:1;" d="M 38.878906 37.078125 C 39 37.121094 39.117188 37.160156 39.238281 37.199219 C 39.238281 37.359375 39.238281 37.515625 39.238281 37.679688 C 39.160156 37.679688 39.082031 37.679688 39 37.679688 C 38.96875 37.75 38.941406 37.824219 38.910156 37.898438 C 38.742188 38.195312 38.5625 38.332031 38.28125 38.519531 C 38.347656 37.949219 38.585938 37.5625 38.878906 37.078125 Z M 38.878906 37.078125 "/>
<path style=" stroke:none;fill-rule:nonzero;fill:rgb(61.176473%,61.960787%,62.7451%);fill-opacity:1;" d="M 21.359375 30.960938 C 21.398438 30.960938 21.4375 30.960938 21.480469 30.960938 C 21.503906 31.082031 21.527344 31.199219 21.550781 31.324219 C 21.582031 31.484375 21.613281 31.644531 21.644531 31.808594 C 21.660156 31.886719 21.675781 31.964844 21.691406 32.046875 C 21.792969 32.574219 21.925781 33.085938 22.078125 33.601562 C 21.957031 33.484375 21.835938 33.363281 21.71875 33.238281 C 21.65625 33.175781 21.59375 33.109375 21.527344 33.046875 C 21.292969 32.648438 21.320312 32.277344 21.335938 31.828125 C 21.339844 31.746094 21.339844 31.664062 21.34375 31.578125 C 21.347656 31.371094 21.351562 31.164062 21.359375 30.960938 Z M 21.359375 30.960938 "/>
<path style=" stroke:none;fill-rule:nonzero;fill:rgb(63.921571%,64.705884%,67.058825%);fill-opacity:1;" d="M 37.921875 33.359375 C 38.003906 33.660156 38.039062 33.886719 38.039062 34.199219 C 37.921875 34.324219 37.800781 34.441406 37.679688 34.558594 C 37.539062 34.8125 37.539062 34.8125 37.441406 35.039062 C 37.359375 35.039062 37.28125 35.039062 37.199219 35.039062 C 37.199219 35.160156 37.199219 35.277344 37.199219 35.398438 C 37.121094 35.398438 37.042969 35.398438 36.960938 35.398438 C 37.140625 34.933594 37.347656 34.488281 37.574219 34.042969 C 37.671875 33.851562 37.671875 33.851562 37.769531 33.652344 C 37.84375 33.507812 37.84375 33.507812 37.921875 33.359375 Z M 37.921875 33.359375 "/>
<path style=" stroke:none;fill-rule:nonzero;fill:rgb(55.29412%,56.862748%,57.647061%);fill-opacity:1;" d="M 36.480469 35.878906 C 36.480469 36.238281 36.480469 36.238281 36.359375 36.601562 C 36.148438 36.78125 36.148438 36.78125 35.886719 36.960938 C 35.554688 37.191406 35.390625 37.332031 35.160156 37.679688 C 35.082031 37.640625 35 37.601562 34.921875 37.558594 C 34.921875 37.480469 34.921875 37.402344 34.921875 37.320312 C 35.578125 36.71875 35.578125 36.71875 35.878906 36.71875 C 35.914062 36.648438 35.945312 36.578125 35.976562 36.503906 C 36.117188 36.242188 36.261719 36.078125 36.480469 35.878906 Z M 36.480469 35.878906 "/>
<path style=" stroke:none;fill-rule:nonzero;fill:rgb(70.980394%,74.509805%,75.294119%);fill-opacity:1;" d="M 37.558594 24.238281 C 37.71875 24.28125 37.875 24.320312 38.039062 24.359375 C 38.039062 24.4375 38.039062 24.519531 38.039062 24.601562 C 38.121094 24.640625 38.199219 24.679688 38.28125 24.71875 C 38.242188 24.839844 38.199219 24.957031 38.160156 25.078125 C 38.191406 25.359375 38.234375 25.640625 38.28125 25.921875 C 38.007812 25.648438 37.925781 25.433594 37.785156 25.078125 C 37.742188 24.972656 37.699219 24.867188 37.65625 24.757812 C 37.558594 24.480469 37.558594 24.480469 37.558594 24.238281 Z M 37.558594 24.238281 "/>
<path style=" stroke:none;fill-rule:nonzero;fill:rgb(76.078433%,76.862746%,78.431374%);fill-opacity:1;" d="M 36.238281 18.839844 C 36.734375 19.015625 37.132812 19.261719 37.558594 19.558594 C 37.324219 19.679688 37.324219 19.679688 37.078125 19.800781 C 36.914062 19.644531 36.753906 19.484375 36.601562 19.320312 C 36.601562 19.242188 36.601562 19.160156 36.601562 19.078125 C 36.480469 19.078125 36.363281 19.078125 36.238281 19.078125 C 36.238281 19 36.238281 18.921875 36.238281 18.839844 Z M 36.601562 19.679688 C 36.71875 19.738281 36.71875 19.738281 36.839844 19.800781 C 36.722656 19.859375 36.722656 19.859375 36.601562 19.921875 C 36.601562 19.839844 36.601562 19.761719 36.601562 19.679688 Z M 36.601562 19.679688 "/>
<path style=" stroke:none;fill-rule:nonzero;fill:rgb(64.313728%,66.666669%,67.450982%);fill-opacity:1;" d="M 21.121094 38.519531 C 21.199219 38.558594 21.277344 38.597656 21.359375 38.640625 C 21.242188 38.816406 21.242188 38.816406 21.121094 39 C 21.039062 39 20.960938 39 20.878906 39 C 20.839844 39.117188 20.800781 39.238281 20.761719 39.359375 C 20.640625 39.4375 20.523438 39.519531 20.398438 39.601562 C 20.242188 39.558594 20.082031 39.519531 19.921875 39.480469 C 20.316406 39.164062 20.710938 38.847656 21.121094 38.519531 Z M 21.121094 38.519531 "/>
<path style=" stroke:none;fill-rule:nonzero;fill:rgb(77.64706%,79.215688%,80.000001%);fill-opacity:1;" d="M 22.921875 23.519531 C 22.769531 23.933594 22.597656 24.257812 22.320312 24.601562 C 22.183594 24.390625 22.183594 24.390625 22.078125 24.121094 C 22.246094 23.636719 22.402344 23.519531 22.921875 23.519531 Z M 22.921875 23.519531 "/>
<path style=" stroke:none;fill-rule:nonzero;fill:rgb(96.078432%,96.862745%,97.254902%);fill-opacity:1;" d="M 33.238281 38.519531 C 33.28125 38.597656 33.320312 38.679688 33.359375 38.761719 C 33.195312 39 33.195312 39 33 39.238281 C 32.921875 39.238281 32.839844 39.238281 32.761719 39.238281 C 32.597656 39.277344 32.4375 39.316406 32.28125 39.359375 C 32.359375 39.203125 32.4375 39.042969 32.519531 38.878906 C 32.597656 38.878906 32.679688 38.878906 32.761719 38.878906 C 32.761719 38.800781 32.761719 38.722656 32.761719 38.640625 C 32.917969 38.601562 33.078125 38.5625 33.238281 38.519531 Z M 33.238281 38.519531 "/>
<path style=" stroke:none;fill-rule:nonzero;fill:rgb(70.19608%,72.156864%,73.725492%);fill-opacity:1;" d="M 25.558594 18.238281 C 25.058594 18.621094 24.753906 18.78125 24.121094 18.71875 C 24.371094 18.214844 25.046875 18.015625 25.558594 18.238281 Z M 25.558594 18.238281 "/>
<path style=" stroke:none;fill-rule:nonzero;fill:rgb(95.686275%,96.862745%,96.862745%);fill-opacity:1;" d="M 36 36.71875 C 36.117188 36.757812 36.238281 36.800781 36.359375 36.839844 C 36.320312 36.957031 36.28125 37.078125 36.238281 37.199219 C 36.003906 37.285156 35.761719 37.367188 35.519531 37.441406 C 35.441406 37.519531 35.363281 37.597656 35.28125 37.679688 C 35.320312 37.304688 35.40625 37.195312 35.683594 36.921875 C 35.789062 36.855469 35.894531 36.789062 36 36.71875 Z M 36 36.71875 "/>
<path style=" stroke:none;fill-rule:nonzero;fill:rgb(70.588237%,70.588237%,71.764708%);fill-opacity:1;" d="M 21.480469 25.078125 C 21.679688 25.078125 21.875 25.078125 22.078125 25.078125 C 21.902344 25.851562 21.902344 25.851562 21.71875 26.640625 C 21.679688 26.640625 21.640625 26.640625 21.601562 26.640625 C 21.601562 26.558594 21.601562 26.476562 21.605469 26.390625 C 21.605469 26.28125 21.605469 26.175781 21.609375 26.0625 C 21.609375 25.957031 21.609375 25.847656 21.613281 25.738281 C 21.613281 25.425781 21.613281 25.425781 21.480469 25.078125 Z M 21.480469 25.078125 "/>
<path style=" stroke:none;fill-rule:nonzero;fill:rgb(72.549021%,74.509805%,75.294119%);fill-opacity:1;" d="M 19.078125 40.078125 C 19.121094 40.160156 19.160156 40.238281 19.199219 40.320312 C 19.160156 40.398438 19.121094 40.476562 19.078125 40.558594 C 18.960938 40.558594 18.84375 40.558594 18.71875 40.558594 C 18.679688 40.757812 18.640625 40.957031 18.601562 41.160156 C 18.558594 41.082031 18.519531 41 18.480469 40.921875 C 18.359375 40.878906 18.242188 40.839844 18.121094 40.800781 C 18.4375 40.5625 18.753906 40.324219 19.078125 40.078125 Z M 19.078125 40.078125 "/>
<path style=" stroke:none;fill-rule:nonzero;fill:rgb(68.627453%,75.686276%,76.47059%);fill-opacity:1;" d="M 26.398438 35.160156 C 26.398438 35.199219 26.398438 35.238281 26.398438 35.28125 C 26.203125 35.28125 26.003906 35.28125 25.800781 35.28125 C 25.722656 35.476562 25.640625 35.675781 25.558594 35.878906 C 25.402344 35.800781 25.242188 35.722656 25.078125 35.640625 C 25.527344 35.21875 25.785156 35.101562 26.398438 35.160156 Z M 26.398438 35.160156 "/>
<path style=" stroke:none;fill-rule:nonzero;fill:rgb(72.549021%,74.509805%,75.686276%);fill-opacity:1;" d="M 40.558594 23.039062 C 40.964844 23.578125 40.964844 23.578125 41.039062 24 C 40.960938 24 40.882812 24 40.800781 24 C 40.679688 24.117188 40.5625 24.238281 40.441406 24.359375 C 40.480469 23.925781 40.519531 23.488281 40.558594 23.039062 Z M 40.558594 23.039062 "/>
<path style=" stroke:none;fill-rule:nonzero;fill:rgb(85.490197%,86.274511%,86.274511%);fill-opacity:1;" d="M 25.078125 18.71875 C 24.871094 18.90625 24.871094 18.90625 24.601562 19.078125 C 24.359375 19.050781 24.359375 19.050781 24.121094 18.960938 C 23.960938 18.917969 23.800781 18.878906 23.640625 18.839844 C 23.835938 18.796875 24.03125 18.753906 24.226562 18.710938 C 24.332031 18.6875 24.441406 18.664062 24.554688 18.640625 C 24.839844 18.601562 24.839844 18.601562 25.078125 18.71875 Z M 25.078125 18.71875 "/>
<path style=" stroke:none;fill-rule:nonzero;fill:rgb(78.823531%,78.039217%,78.823531%);fill-opacity:1;" d="M 37.320312 38.640625 C 37.4375 38.679688 37.558594 38.71875 37.679688 38.761719 C 37.648438 38.984375 37.648438 38.984375 37.558594 39.238281 C 37.3125 39.390625 37.3125 39.390625 37.078125 39.480469 C 37.078125 39.242188 37.078125 39.003906 37.078125 38.761719 C 37.160156 38.71875 37.238281 38.679688 37.320312 38.640625 Z M 37.320312 38.640625 "/>
<path style=" stroke:none;fill-rule:nonzero;fill:rgb(69.803923%,70.980394%,77.254903%);fill-opacity:1;" d="M 34.679688 37.679688 C 34.71875 37.796875 34.757812 37.917969 34.800781 38.039062 C 34.421875 38.261719 34.15625 38.304688 33.71875 38.28125 C 34.292969 37.679688 34.292969 37.679688 34.679688 37.679688 Z M 34.679688 37.679688 "/>
<path style=" stroke:none;fill-rule:nonzero;fill:rgb(75.294119%,75.294119%,76.47059%);fill-opacity:1;" d="M 24.71875 21.121094 C 24.917969 21.160156 25.117188 21.199219 25.320312 21.238281 C 25.019531 21.558594 24.765625 21.785156 24.359375 21.960938 C 24.320312 21.800781 24.28125 21.644531 24.238281 21.480469 C 24.398438 21.519531 24.558594 21.558594 24.71875 21.601562 C 24.71875 21.441406 24.71875 21.28125 24.71875 21.121094 Z M 24.71875 21.121094 "/>
<path style=" stroke:none;fill-rule:nonzero;fill:rgb(76.47059%,76.862746%,76.862746%);fill-opacity:1;" d="M 25.441406 38.519531 C 25.597656 38.640625 25.757812 38.757812 25.921875 38.878906 C 25.703125 39.066406 25.703125 39.066406 25.441406 39.238281 C 25.320312 39.199219 25.203125 39.160156 25.078125 39.121094 C 25.125 38.886719 25.125 38.886719 25.199219 38.640625 C 25.277344 38.601562 25.359375 38.5625 25.441406 38.519531 Z M 25.441406 38.519531 "/>
<path style=" stroke:none;fill-rule:nonzero;fill:rgb(96.470588%,96.862745%,97.254902%);fill-opacity:1;" d="M 18.71875 25.199219 C 18.800781 25.238281 18.878906 25.277344 18.960938 25.320312 C 18.921875 25.558594 18.878906 25.796875 18.839844 26.039062 C 18.722656 26 18.601562 25.960938 18.480469 25.921875 C 18.585938 25.335938 18.585938 25.335938 18.71875 25.199219 Z M 18.71875 25.199219 "/>
<path style=" stroke:none;fill-rule:nonzero;fill:rgb(60.000002%,60.784316%,65.490198%);fill-opacity:1;" d="M 22.679688 19.441406 C 22.679688 19.800781 22.679688 19.800781 22.378906 20.121094 C 22.28125 20.214844 22.183594 20.304688 22.078125 20.398438 C 21.960938 20.359375 21.84375 20.320312 21.71875 20.28125 C 22.035156 20.003906 22.355469 19.726562 22.679688 19.441406 Z M 22.679688 19.441406 "/>
<path style=" stroke:none;fill-rule:nonzero;fill:rgb(67.058825%,67.843139%,69.01961%);fill-opacity:1;" d="M 33.480469 40.800781 C 33.796875 40.800781 34.113281 40.800781 34.441406 40.800781 C 34.117188 41.121094 33.792969 41.167969 33.359375 41.28125 C 33.398438 41.121094 33.4375 40.964844 33.480469 40.800781 Z M 33.480469 40.800781 "/>
<path style=" stroke:none;fill-rule:nonzero;fill:rgb(55.29412%,56.078434%,58.039218%);fill-opacity:1;" d="M 30.238281 35.398438 C 30.320312 35.441406 30.398438 35.480469 30.480469 35.519531 C 30.34375 35.621094 30.210938 35.71875 30.074219 35.820312 C 30 35.875 29.925781 35.929688 29.847656 35.988281 C 29.640625 36.121094 29.640625 36.121094 29.398438 36.121094 C 29.441406 35.960938 29.480469 35.804688 29.519531 35.640625 C 29.59375 35.621094 29.667969 35.605469 29.746094 35.585938 C 30.003906 35.527344 30.003906 35.527344 30.238281 35.398438 Z M 30.238281 35.398438 "/>
<path style=" stroke:none;fill-rule:nonzero;fill:rgb(46.27451%,47.843137%,49.803922%);fill-opacity:1;" d="M 29.160156 35.039062 C 29.636719 35.039062 30.109375 35.039062 30.601562 35.039062 C 30.601562 35.160156 30.601562 35.277344 30.601562 35.398438 C 30.519531 35.398438 30.441406 35.398438 30.359375 35.398438 C 30.359375 35.320312 30.359375 35.242188 30.359375 35.160156 C 29.964844 35.160156 29.566406 35.160156 29.160156 35.160156 C 29.160156 35.121094 29.160156 35.082031 29.160156 35.039062 Z M 29.160156 35.039062 "/>
<path style=" stroke:none;fill-rule:nonzero;fill:rgb(97.254902%,97.647059%,96.862745%);fill-opacity:1;" d="M 21.238281 25.078125 C 21.398438 25.199219 21.558594 25.316406 21.71875 25.441406 C 21.679688 25.597656 21.640625 25.757812 21.601562 25.921875 C 21.480469 25.878906 21.363281 25.839844 21.238281 25.800781 C 21.195312 25.601562 21.15625 25.402344 21.121094 25.199219 C 21.160156 25.160156 21.199219 25.121094 21.238281 25.078125 Z M 21.238281 25.078125 "/>
</g>
</svg>
